# xmcd CD database file
#
# Track frame offsets:
#	150
#	23265
#	48972
#	73147
#	97677
#	124107
#	164152
#	192087
#
# Disc length: 3309 seconds
#
# Revision: 0
# Processed by: cddbd v1.5.2PL0 Copyright (c) Steve Scherf et al.
# Submitted via: NeoAudio 9.9.9
#
DISCID=5f0ceb08
DTITLE=Papa George Band - Nite With You
DYEAR=1996
DGENRE=Blues
TTITLE0=Nite With You
TTITLE1=It's Flooding Down In Texas
TTITLE2=Heading South
TTITLE3=Guilty
TTITLE4=Somedays
TTITLE5=Rain In The Sky
TTITLE6=Rock The Boat
TTITLE7=Oh Well
EXTD=YEAR: 1996
EXTT0=
EXTT1=
EXTT2=
EXTT3=
EXTT4=
EXTT5=
EXTT6=
EXTT7=
PLAYORDER=
